<svg id="Layer_1" enable-background="new 0 0 512.002 512.002" height="512" viewBox="0 0 512.002 512.002" width="512" xmlns="http://www.w3.org/2000/svg"><g><g><path d="m459.113 512.002h-61.112l-26.149-33-33.851 33h-164l-29.638-33-30.362 33h-61.112c-8.284 0-15-6.716-15-15v-57.822c0-57.34 31.877-107.375 78.84-133.314 7.207-3.98 21.416 27.942 29.272 25.157 10.239-3.63 14.332-41.528 25.437-42.89 6.107-.749 12.325-1.134 18.631-1.134h131.863c6.812 0 13.521.45 20.098 1.321 10.624 1.408 18.15 31.213 27.97 34.702 8.816 3.133 20.015-20.241 28.002-15.612 45.464 26.348 76.11 75.547 76.11 131.769v57.822c.001 8.285-6.715 15.001-14.999 15.001z" fill="#bee75e"/></g><path d="m398.003 307.411c-7.987-4.629-19.187 18.745-28.002 15.612-9.82-3.49-17.346-33.295-27.97-34.702-6.578-.872-13.286-1.321-20.098-1.321h-65.932v225.002h82l33.851-33 26.149 33h61.112c8.284 0 15-6.716 15-15v-57.822c0-56.222-30.645-105.421-76.11-131.769z" fill="#00cb75"/><path clip-rule="evenodd" d="m114.001 512.002h60v-224.154c-21.669 2.284-41.996 9.133-60 19.568z" fill="#fdbf00" fill-rule="evenodd"/><path clip-rule="evenodd" d="m338.001 512.002h60v-204.587c-18.004-10.434-38.331-17.283-60-19.568z" fill="#ff8856" fill-rule="evenodd"/><g><path d="m256.001 347c-23.296 0-45.475-7.078-64.438-20.518-30.616-2.761-59.053-16.524-80.501-39.065-22.609-23.763-35.061-54.808-35.061-87.417v-19s41.898-164.505 97.997-177.659c9.318-2.185 19.028-3.341 29.003-3.341h106c8.1 0 16.026.762 23.709 2.219 58.737 11.136 103.291 178.781 103.291 178.781v19c0 32.609-12.452 63.654-35.062 87.417-21.448 22.542-49.885 36.305-80.501 39.065-18.962 13.44-41.141 20.518-64.437 20.518z" fill="#ffe4c1"/></g><path d="m332.709 2.219c-7.682-1.457-15.608-2.219-23.708-2.219h-53v347c23.296 0 45.475-7.078 64.438-20.518 30.616-2.76 59.053-16.524 80.501-39.065 22.609-23.762 35.062-54.808 35.062-87.417v-19c-.001 0-44.555-167.646-103.293-178.781z" fill="#fdd1a3"/><g><path d="m300.881 264.6h-89.76c-3.38 0-6.12-2.74-6.12-6.12v-10.069c0-24.859 20.152-45.011 45.011-45.011h11.978c24.859 0 45.011 20.152 45.011 45.011v10.069c0 3.38-2.74 6.12-6.12 6.12z" fill="#fff4f4"/></g><path d="m76.001 127v54h25.057c47.972 0 87-39.028 87-87v-93.116c-63.012 7.419-112.057 61.143-112.057 126.116z" fill="#fff4f4"/><path d="m436.001 181v-54c0-64.972-49.045-118.696-112.057-126.116v93.116c0 47.972 39.027 87 86.999 87z" fill="#f6efea"/><path clip-rule="evenodd" d="m256.001 417c8.262 0 15-6.739 15-15 0-8.262-6.738-15-15-15s-15 6.738-15 15c0 8.261 6.738 15 15 15z" fill="#392e6e" fill-rule="evenodd"/><path clip-rule="evenodd" d="m256.001 477c8.262 0 15-6.739 15-15 0-8.262-6.738-15-15-15s-15 6.738-15 15c0 8.261 6.738 15 15 15z" fill="#392e6e" fill-rule="evenodd"/><path d="m261.99 203.4h-5.989v61.2h44.88c3.38 0 6.12-2.74 6.12-6.12v-10.069c0-24.859-20.152-45.011-45.011-45.011z" fill="#f6efea"/><g clip-rule="evenodd" fill="#2b2256" fill-rule="evenodd"><path d="m256.001 387v30c8.262 0 15-6.739 15-15 0-8.262-6.738-15-15-15z"/><path d="m256.001 447v30c8.262 0 15-6.739 15-15 0-8.262-6.738-15-15-15z"/></g></g></svg>