<?xml version="1.0" encoding="iso-8859-1"?>
<!-- Generator: Adobe Illustrator 19.0.0, SVG Export Plug-In . SVG Version: 6.00 Build 0)  -->
<svg version="1.1" id="Capa_1" xmlns="http://www.w3.org/2000/svg" xmlns:xlink="http://www.w3.org/1999/xlink" x="0px" y="0px"
	 viewBox="0 0 460.005 460.005" style="enable-background:new 0 0 460.005 460.005;" xml:space="preserve">
<g>
	
		<rect x="295.1" y="60.585" transform="matrix(-0.7071 0.7071 -0.7071 -0.7071 647.8726 -102.1872)" style="fill:#07806D;" width="100" height="45"/>
	
		<rect x="290.78" y="1.265" transform="matrix(0.7071 0.7071 -0.7071 0.7071 128.0077 -206.5072)" style="fill:#42968A;" width="45" height="100"/>
	
		<rect x="326.92" y="92.405" transform="matrix(-0.7071 0.7071 -0.7071 -0.7071 724.6919 -70.3681)" style="fill:#42968A;" width="100" height="45"/>
	
		<rect x="358.74" y="124.225" transform="matrix(-0.7071 0.7071 -0.7071 -0.7071 801.5121 -38.5474)" style="fill:#07806D;" width="100" height="45"/>
	<path style="fill:#96B5A5;" d="M98.284,418.289c-15.621,15.621-40.948,15.621-56.569,0l-21.213,21.213
		c27.337,27.336,71.658,27.336,98.995,0l42.426-42.427l-13.499-13.499l-7.714-7.714L98.284,418.289z"/>
	<path style="fill:#B7D6CA;" d="M41.716,361.72l42.426-42.426l-21.213-21.213l-42.426,42.427c-27.337,27.337-27.337,71.658,0,98.995
		l21.213-21.213C26.095,402.668,26.095,377.341,41.716,361.72z"/>
	<polygon style="fill:#B7D6CA;" points="357.474,166.17 325.654,134.35 293.835,102.531 262.015,70.711 240.802,91.924 
		254.944,106.066 233.731,127.279 254.944,148.493 276.157,127.279 368.081,219.203 389.294,197.99 	"/>
	
		<rect x="317.725" y="190.061" transform="matrix(-0.7071 -0.7071 0.7071 -0.7071 422.9963 585.3339)" style="fill:#96B5A5;" width="30" height="30"/>
	<path style="fill:#D5310E;" d="M98.284,418.289l42.426-42.426l-28.284-28.284l-70.711,70.71
		C57.337,433.91,82.663,433.91,98.284,418.289z"/>
	<path style="fill:#F46A1A;" d="M41.716,418.289l70.711-70.711l-28.284-28.284L41.716,361.72
		C26.095,377.341,26.095,402.668,41.716,418.289z"/>
	
		<rect x="292.977" y="160.312" transform="matrix(0.7071 -0.7071 0.7071 0.7071 -37.2953 270.5862)" style="fill:#D5310E;" width="30" height="40"/>
	
		<rect x="264.692" y="132.028" transform="matrix(0.7071 -0.7071 0.7071 0.7071 -25.5798 242.3013)" style="fill:#F46A1A;" width="30" height="40"/>
	<polygon style="fill:#B7D6CA;" points="112.426,347.579 140.711,375.863 148.425,383.577 161.924,397.076 290.299,268.701 
		240.802,219.203 	"/>
	
		<rect x="282.37" y="177.132" transform="matrix(-0.7071 0.7071 -0.7071 -0.7071 657.6431 151.8628)" style="fill:#B7D6CA;" width="30" height="70"/>
	
		<rect x="232.873" y="127.635" transform="matrix(0.7071 -0.7071 0.7071 0.7071 -42.3996 222.9078)" style="fill:#C7FFE9;" width="30" height="70"/>
	
		<rect x="116.865" y="167.867" transform="matrix(-0.7071 -0.7071 0.7071 -0.7071 76.363 548.9142)" style="fill:#C7FFE9;" width="70" height="181.55"/>
	
		<rect x="191.66" y="168.848" transform="matrix(0.7071 0.7071 -0.7071 0.7071 196.3855 -106.4246)" style="fill:#42968A;" width="70" height="30"/>
	
		<rect x="261.157" y="198.345" transform="matrix(0.7071 -0.7071 0.7071 0.7071 -84.1153 263.6198)" style="fill:#07806D;" width="30" height="70"/>
</g>
<g>
</g>
<g>
</g>
<g>
</g>
<g>
</g>
<g>
</g>
<g>
</g>
<g>
</g>
<g>
</g>
<g>
</g>
<g>
</g>
<g>
</g>
<g>
</g>
<g>
</g>
<g>
</g>
<g>
</g>
</svg>
