<svg id="Layer_3" enable-background="new 0 0 64 64" height="512" viewBox="0 0 64 64" width="512" xmlns="http://www.w3.org/2000/svg"><g><path d="m58 62h-52c-2.209 0-4-1.791-4-4v-52c0-2.209 1.791-4 4-4h52c2.209 0 4 1.791 4 4v52c0 2.209-1.791 4-4 4z" fill="#243242"/><path d="m2 6v36.612c1.463.25 2.965.388 4.5.388 14.636 0 26.5-11.864 26.5-26.5 0-5.354-1.593-10.333-4.323-14.5h-22.677c-2.209 0-4 1.791-4 4z" fill="#4d5d7a"/><path d="m56 58h-48c-1.105 0-2-.895-2-2v-48c0-1.105.895-2 2-2h48c1.105 0 2 .895 2 2v48c0 1.105-.895 2-2 2z" fill="#a8b0bc"/><path d="m6 8v34.987c.167.003.332.013.5.013 14.636 0 26.5-11.864 26.5-26.5 0-3.731-.775-7.28-2.166-10.5h-22.834c-1.105 0-2 .895-2 2z" fill="#c1c8d1"/><path d="m58 44v12c0 1.105-.895 2-2 2h-48c-1.105 0-2-.895-2-2v-12z" fill="#758190"/><path d="m27 33c0-3.938-3.251-7.116-7.215-6.997-3.832.115-6.785 3.458-6.785 7.291v14.455c0 3.285 2.532 6.15 5.815 6.249 3.398.101 6.185-2.623 6.185-5.998v-1.885c0-3.828.752-7.585 1.756-11.279.159-.585.244-1.201.244-1.836z" fill="#d5cec2"/><path d="m26.979 33.318c.005-.107.021-.21.021-.318 0-3.938-3.251-7.116-7.215-6.997-3.832.115-6.785 3.458-6.785 7.291v8.901c5.571-1.406 10.44-4.573 13.979-8.877z" fill="#e7e4dd"/><path d="m49 22h-34c-1.105 0-2-.895-2-2v-8c0-1.105.895-2 2-2h34c1.105 0 2 .895 2 2v8c0 1.105-.895 2-2 2z" fill="#c7e2fc"/><g><path d="m42.999 19.998h-3.999c-.553 0-1-.447-1-1v-5.999c0-.553.447-1 1-1h3.999c.553 0 1 .447 1 1v5.999c0 .553-.447 1-1 1zm-2.999-2h1.999v-3.999h-1.999z" fill="#243242"/></g><g><path d="m45.999 17.999h1.999v1.999h-1.999z" fill="#243242"/></g><path d="m37 33c0-3.938 3.251-7.116 7.215-6.997 3.832.115 6.785 3.458 6.785 7.291v14.455c0 3.285-2.532 6.15-5.815 6.249-3.398.101-6.185-2.623-6.185-5.998v-1.885c0-3.828-.752-7.585-1.756-11.279-.159-.585-.244-1.201-.244-1.836z" fill="#e7e4dd"/><g><path d="m48.999 32.998h-2c0-1.653-1.346-2.999-2.999-2.999v-2c2.757 0 4.999 2.242 4.999 4.999z" fill="#d5cec2"/></g><g><path d="m17 33h-2c0-2.758 2.242-5.001 4.999-5.001v2c-1.653 0-2.999 1.346-2.999 3.001z" fill="#d5cec2"/></g><path d="m13 12v8c0 1.105.895 2 2 2h17.425c.375-1.775.575-3.614.575-5.5 0-2.243-.281-4.42-.806-6.5h-17.194c-1.105 0-2 .895-2 2z" fill="#ebf7fe"/></g></svg>