<?xml version="1.0" encoding="iso-8859-1"?>
<!-- Generator: Adobe Illustrator 19.0.0, SVG Export Plug-In . SVG Version: 6.00 Build 0)  -->
<svg version="1.1" id="Capa_1" xmlns="http://www.w3.org/2000/svg" xmlns:xlink="http://www.w3.org/1999/xlink" x="0px" y="0px"
	 viewBox="0 0 512 512" style="enable-background:new 0 0 512 512;" xml:space="preserve">
<g>
	<circle style="fill:#235087;" cx="150.069" cy="154.483" r="35.31"/>
	<rect x="132.414" y="375.172" style="fill:#235087;" width="35.31" height="35.31"/>
</g>
<rect x="264.828" y="39.724" style="fill:#FFA511;" width="247.172" height="141.241"/>
<rect x="264.828" y="180.966" style="fill:#FFDC13;" width="247.172" height="35.31"/>
<g>
	<path style="fill:#E5AF17;" d="M503.172,472.276c-4.873,0-8.828-3.955-8.828-8.828V286.897c0-4.873,3.955-8.828,8.828-8.828
		c4.873,0,8.828,3.955,8.828,8.828v176.552C512,468.321,508.045,472.276,503.172,472.276z"/>
	<path style="fill:#E5AF17;" d="M8.828,472.276c-4.873,0-8.828-3.955-8.828-8.828V286.897c0-4.873,3.955-8.828,8.828-8.828
		s8.828,3.955,8.828,8.828v176.552C17.655,468.321,13.7,472.276,8.828,472.276z"/>
</g>
<rect y="251.586" style="fill:#FFDC13;" width="512" height="35.31"/>
<polygon style="fill:#F08015;" points="353.103,216.276 344.276,251.586 432.552,251.586 423.724,216.276 "/>
<g>
	<path style="fill:#235087;" d="M150.069,472.276c-4.873,0-8.828-3.955-8.828-8.828v-52.966c0-4.873,3.955-8.828,8.828-8.828
		c4.873,0,8.828,3.955,8.828,8.828v52.966C158.897,468.321,154.942,472.276,150.069,472.276z"/>
	<path style="fill:#235087;" d="M203.034,472.276c-4.873,0-8.828-3.955-8.828-8.828v-8.828h-88.276v8.828
		c0,4.873-3.955,8.828-8.828,8.828s-8.828-3.955-8.828-8.828v-17.655c0-4.873,3.955-8.828,8.828-8.828h105.931
		c4.873,0,8.828,3.955,8.828,8.828v17.655C211.862,468.321,207.907,472.276,203.034,472.276z"/>
</g>
<path style="fill:#4DB5FF;" d="M105.931,233.931L105.931,233.931c0-19.5,15.81-35.31,35.31-35.31h17.655
	c19.5,0,35.31,15.81,35.31,35.31H105.931z"/>
<path style="fill:#F08015;" d="M396.879,180.966H512V46.53C490.125,103.186,449.492,150.634,396.879,180.966z"/>
<path style="fill:#E5AF17;" d="M264.828,216.276H512v-35.31H396.879C356.732,204.147,311.181,216.329,264.828,216.276z"/>
<g>
	<path style="fill:#EF2648;" d="M70.621,269.241v105.931h158.897V269.241c0-19.5-15.81-35.31-35.31-35.31h-88.276
		C86.431,233.931,70.621,249.741,70.621,269.241z"/>
	<path style="fill:#EF2648;" d="M70.621,322.207H52.966c-9.754,0-17.655,7.901-17.655,17.655v17.655
		c0,9.754,7.901,17.655,17.655,17.655h17.655V322.207z"/>
</g>
<path style="fill:#B20D24;" d="M229.517,272.102c-37.703,51.721-95.311,85.327-158.897,92.69v10.381h158.897V272.102z"/>
<path id="SVGCleanerId_0" style="fill:#B20D24;" d="M247.172,322.207h-17.655v52.966h17.655c9.754,0,17.655-7.901,17.655-17.655
	v-17.655C264.828,330.108,256.927,322.207,247.172,322.207z"/>
<g>
	<path id="SVGCleanerId_0_1_" style="fill:#B20D24;" d="M247.172,322.207h-17.655v52.966h17.655c9.754,0,17.655-7.901,17.655-17.655
		v-17.655C264.828,330.108,256.927,322.207,247.172,322.207z"/>
</g>
<path style="fill:#B20D24;" d="M44.138,366.345c-2.172,0-4.317-0.106-6.471-0.159c3.107,5.535,8.951,8.969,15.298,8.987h17.655
	v-10.399C61.828,365.806,52.992,366.327,44.138,366.345z"/>
<g>
	<path style="fill:#163768;" d="M167.724,399.96v-24.788h-35.31v18.097C144.419,393.984,156.284,396.235,167.724,399.96z"/>
	<path style="fill:#163768;" d="M175.925,130.586c3.522,19.103-9.11,37.455-28.213,40.978c-11.926,2.198-24.143-1.898-32.327-10.84
		c3.372,19.182,21.654,32,40.836,28.637c19.182-3.372,32-21.654,28.637-40.836C183.676,141.806,180.577,135.574,175.925,130.586z"/>
</g>
<g>
</g>
<g>
</g>
<g>
</g>
<g>
</g>
<g>
</g>
<g>
</g>
<g>
</g>
<g>
</g>
<g>
</g>
<g>
</g>
<g>
</g>
<g>
</g>
<g>
</g>
<g>
</g>
<g>
</g>
</svg>
