<?xml version="1.0" encoding="iso-8859-1"?>
<!-- Generator: Adobe Illustrator 19.0.0, SVG Export Plug-In . SVG Version: 6.00 Build 0)  -->
<svg version="1.1" id="Capa_1" xmlns="http://www.w3.org/2000/svg" xmlns:xlink="http://www.w3.org/1999/xlink" x="0px" y="0px"
	 viewBox="0 0 460 460" style="enable-background:new 0 0 460 460;" xml:space="preserve">
<g>
	<path style="fill:#FFD23D;" d="M410,0H230v30h180c10.841,0,20,9.159,20,20v14.211c17.616,7.754,30,25.391,30,45.789V50
		C460,22.5,437.5,0,410,0z"/>
	<path style="fill:#FFEDAD;" d="M30,64.211V50c0-10.841,9.159-20,20-20h180V0H50C22.5,0,0,22.5,0,50v60
		C0,89.603,12.384,71.966,30,64.211z"/>
	<path style="fill:#B7D6CA;" d="M60,110h30v30h141V60H50c-7.103,0-13.866,1.511-20,4.211C12.384,71.966,0,89.603,0,110v30h60V110z"
		/>
	<path style="fill:#96B5A5;" d="M430,64.211c-6.134-2.7-12.897-4.211-20-4.211H231v80h139v-30h30v30h60v-30
		C460,89.603,447.616,71.966,430,64.211z"/>
	<path style="fill:#B7D6CA;" d="M135,405V225h96v-55H90v30H60v-30H0v240c0,27.5,22.5,50,50,50h181v-55H135z"/>
	<path style="fill:#96B5A5;" d="M400,200h-30v-30H231v55h94v180h-94v55h179c27.5,0,50-22.5,50-50V170h-60V200z"/>
	<rect y="140" style="fill:#96B5A5;" width="60" height="30"/>
	<rect x="90" y="140" style="fill:#96B5A5;" width="141" height="30"/>
	<rect x="231" y="140" style="fill:#42968A;" width="139" height="30"/>
	<rect x="400" y="140" style="fill:#42968A;" width="60" height="30"/>
	<polygon style="fill:#FFEDAD;" points="230,255 250,255 250,295 290,295 290,335 250,335 250,375 230,375 230,405 325,405 325,225 
		230,225 	"/>
	<polygon style="fill:#FFFFFF;" points="210,375 210,335 170,335 170,295 210,295 210,255 230,255 230,225 135,225 135,405 230,405 
		230,375 	"/>
	<polygon style="fill:#F46A1A;" points="210,295 170,295 170,335 210,335 210,375 230,375 230,255 210,255 	"/>
	<polygon style="fill:#D5310E;" points="250,375 250,335 290,335 290,295 250,295 250,255 230,255 230,375 	"/>
	<rect x="60" y="110" style="fill:#FFFFFF;" width="30" height="90"/>
	<rect x="370" y="110" style="fill:#C7FFE9;" width="30" height="90"/>
</g>
<g>
</g>
<g>
</g>
<g>
</g>
<g>
</g>
<g>
</g>
<g>
</g>
<g>
</g>
<g>
</g>
<g>
</g>
<g>
</g>
<g>
</g>
<g>
</g>
<g>
</g>
<g>
</g>
<g>
</g>
</svg>
